<?xml version="1.0" encoding="UTF-8" standalone="no" ?>
<!DOCTYPE svg PUBLIC "-//W3C//DTD SVG 1.1//EN" "http://www.w3.org/Graphics/SVG/1.1/DTD/svg11.dtd">
<svg xmlns="http://www.w3.org/2000/svg" xmlns:xlink="http://www.w3.org/1999/xlink" version="1.1" width="1080" height="500" viewBox="0 0 1080 500" xml:space="preserve">
<desc>Created with Fabric.js 5.2.4</desc>
<defs>
</defs>
<g transform="matrix(1 0 0 1 540 250)" id="c08a1745-e644-4145-b289-55cb031909a9"  >
<rect style="stroke: none; stroke-width: 1; stroke-dasharray: none; stroke-linecap: butt; stroke-dashoffset: 0; stroke-linejoin: miter; stroke-miterlimit: 4; fill: rgb(255,255,255); fill-rule: nonzero; opacity: 1; visibility: hidden;" vector-effect="non-scaling-stroke"  x="-540" y="-250" rx="0" ry="0" width="1080" height="500" />
</g>
<g transform="matrix(Infinity NaN NaN Infinity 0 0)" id="b17088c4-f6a9-4a96-8e0c-a34bb19cb29a"  >
</g>
<g transform="matrix(12.97 0 0 12.97 540 250)" id="0a089c77-28c3-47f3-8381-36c7a5cd7517"  >
<path style="stroke: rgb(255,255,255); stroke-width: 0; stroke-dasharray: none; stroke-linecap: butt; stroke-dashoffset: 0; stroke-linejoin: miter; stroke-miterlimit: 4; fill: rgb(255,255,255); fill-rule: nonzero; opacity: 1;" vector-effect="non-scaling-stroke"  transform=" translate(-47.9, -49.95)" d="M 80.8 47.4 L 74.3 47 L 75.1 41.9 L 81.8 42.5 L 80.8 47.4 z M 67.1 41.2 L 73.1 41.7 L 72.3 46.900000000000006 L 66.3 46.50000000000001 L 67.1 41.2 z M 49.2 45.4 L 39.5 44.8 L 42 36.3 L 49.1 36 L 48.2 38.9 C 48.2 39.1 48.1 39.199999999999996 48.2 39.4 L 49.2 45.4 z M 33.7 36.7 L 39.800000000000004 36.400000000000006 L 37.400000000000006 44.60000000000001 L 30 44.1 L 33.7 36.7 z M 28.3 46 C 28.3 46 28.3 46 28.3 46 L 80.3 49.4 L 79.89999999999999 51.699999999999996 L 14.399999999999991 47.3 C 14.199999999999992 46.5 14.09999999999999 45.8 13.999999999999991 45 L 28.3 46 z M 77.6 63.9 L 35.8 63.8 C 25.9 63.8 17.799999999999997 56.9 14.999999999999996 49.5 L 79.5 53.8 L 77.6 63.9 z" stroke-linecap="round" />
</g>
</svg>