<?xml version="1.0" encoding="UTF-8" standalone="no" ?>
<!DOCTYPE svg PUBLIC "-//W3C//DTD SVG 1.1//EN" "http://www.w3.org/Graphics/SVG/1.1/DTD/svg11.dtd">
<svg xmlns="http://www.w3.org/2000/svg" xmlns:xlink="http://www.w3.org/1999/xlink" version="1.1" width="1080" height="600" viewBox="0 0 1080 600" xml:space="preserve">
<desc>Created with Fabric.js 5.2.4</desc>
<defs>
</defs>
<g transform="matrix(1 0 0 1 540 300)" id="01aa175c-d405-4391-924b-999fcccad125"  >
<rect style="stroke: none; stroke-width: 1; stroke-dasharray: none; stroke-linecap: butt; stroke-dashoffset: 0; stroke-linejoin: miter; stroke-miterlimit: 4; fill: rgb(255,255,255); fill-rule: nonzero; opacity: 1; visibility: hidden;" vector-effect="non-scaling-stroke"  x="-540" y="-300" rx="0" ry="0" width="1080" height="600" />
</g>
<g transform="matrix(Infinity NaN NaN Infinity 0 0)" id="f3fc1cf3-b44c-4737-8e8a-0cf571f86710"  >
</g>
<g transform="matrix(1.29 0 0 1.29 540 300)"  >
<g style="" vector-effect="non-scaling-stroke"   >
		<g transform="matrix(1.36 0 0 1.36 0 -80.33)"  >
<path style="stroke: rgb(255,255,255); stroke-width: 1; stroke-dasharray: none; stroke-linecap: butt; stroke-dashoffset: 0; stroke-linejoin: miter; stroke-miterlimit: 4; fill: rgb(255,255,255); fill-rule: nonzero; opacity: 1;" vector-effect="non-scaling-stroke"  transform=" translate(-294.47, -235.33)" d="M 580.431 241.885 C 576.166 236.81699999999998 565.743 232.619 561.373 227.646 C 555.205 220.62699999999998 551.695 210.86399999999998 549.755 203.243 C 548.119 196.817 548.454 189.368 549.564 186.796 C 550.664 184.214 550.52 180.781 549.2289999999999 179.117 C 547.948 177.463 541.9419999999999 178.24599999999998 535.516 179.844 C 482.034 193.09699999999998 331.94999999999993 189.837 268.22599999999994 187.84799999999998 C 261.59899999999993 187.63799999999998 250.85999999999996 187.24499999999998 244.23299999999995 187.265 C 194.45099999999996 187.456 174.89599999999996 200.117 174.89599999999996 200.117 L 67.289 262.129 C 61.542 265.43800000000005 51.539 268.41200000000003 44.913 268.766 L 6.882999999999996 270.812 C 0.2659999999999956 271.15700000000004 -1.9720000000000049 275.039 1.9009999999999954 279.457 C 5.763999999999996 283.875 14.274999999999995 292.348 20.891999999999996 292.453 L 573.059 292.453 C 579.6859999999999 292.568 586.5799999999999 292.28099999999995 587.661 285.75 C 590.434 268.976 589.027 252.079 580.431 241.885 z M 230.559 218.954 C 223.559 229.11 206.557 228.785 206.557 228.785 L 147.164 228.852 L 183.95999999999998 207.518 C 183.95999999999998 207.518 202.89399999999998 207.451 215.89899999999997 207.451 C 228.895 207.451 237.568 208.79 230.559 218.954 z" stroke-linecap="round" />
</g>
		<g transform="matrix(1.36 0 0 1.36 7.85 40.95)"  >
<path style="stroke: rgb(255,255,255); stroke-width: 1; stroke-dasharray: none; stroke-linecap: butt; stroke-dashoffset: 0; stroke-linejoin: miter; stroke-miterlimit: 4; fill: rgb(255,255,255); fill-rule: nonzero; opacity: 1;" vector-effect="non-scaling-stroke"  transform=" translate(-300.25, -324.62)" d="M 575.554 304.28 L 25.586 304.28 C 21.168 304.19399999999996 20.011 311.24199999999996 23.97 313.22099999999995 C 29.985 316.22299999999996 41.650999999999996 320.4889999999999 64.12299999999999 325.35599999999994 C 80.80999999999999 314.38699999999994 105.00199999999998 313.70899999999995 121.74699999999999 324.58199999999994 L 142.50699999999998 338.04599999999994 C 150.60599999999997 339.06899999999996 159.04999999999998 340.1019999999999 168.21999999999997 341.12499999999994 C 174.49299999999997 341.8229999999999 181.64599999999996 342.41599999999994 189.39099999999996 342.91299999999995 L 210.88799999999998 326.72399999999993 C 227.64099999999996 314.12999999999994 254.26299999999998 313.0109999999999 272.012 324.17999999999995 L 304.906 344.95899999999995 C 318.22700000000003 344.8349999999999 331.719 344.64399999999995 345.183 344.38599999999997 L 375.706 324.573 C 392.661 313.518 419.273 313.63399999999996 436.22700000000003 324.81199999999995 L 460.822 341.03 C 479.468 340.332 495.668 339.643 508.261 339.09799999999996 L 539.826 315.775 C 551.082 307.39799999999997 568.1120000000001 309.56899999999996 577.311 320.05899999999997 C 579.981 316.089 579.379 304.347 575.554 304.28 z" stroke-linecap="round" />
</g>
		<g transform="matrix(1.36 0 0 1.36 0.01 104.02)"  >
<path style="stroke: rgb(255,255,255); stroke-width: 1; stroke-dasharray: none; stroke-linecap: butt; stroke-dashoffset: 0; stroke-linejoin: miter; stroke-miterlimit: 4; fill: rgb(255,255,255); fill-rule: nonzero; opacity: 1;" vector-effect="non-scaling-stroke"  transform=" translate(-294.48, -371.05)" d="M 550.328 334 L 493.813 375.759 C 490.428 378.265 483.352 378.475 479.804 376.123 L 430.289 343.477 C 417.55199999999996 335.06199999999995 398.274 334.96599999999995 385.489 343.286 L 334.779 376.19 C 330.877 378.69599999999997 322.96 378.752 319.029 376.286 L 266.331 342.999 C 253.18300000000002 334.718 233.91400000000002 335.512 221.483 344.85400000000004 L 180.555 375.68300000000005 C 177.17000000000002 378.24500000000006 170.14100000000002 378.48500000000007 166.584 376.1700000000001 L 115.894 343.3040000000001 C 102.554 334.6310000000001 83.27600000000001 335.78800000000007 71.065 345.9820000000001 L 21.989999999999995 386.9290000000001 C 16.270999999999994 391.6910000000001 15.506999999999994 400.1820000000001 20.258999999999993 405.90100000000007 C 22.935999999999993 409.09400000000005 26.770999999999994 410.7490000000001 30.624999999999993 410.7490000000001 C 33.66599999999999 410.7490000000001 36.73499999999999 409.7170000000001 39.24099999999999 407.62200000000007 L 88.335 366.68500000000006 C 91.443 364.0830000000001 97.812 363.71100000000007 101.226 365.91100000000006 L 151.936 398.79600000000005 C 165.046 407.31700000000006 184.333 406.61800000000005 196.793 397.22900000000004 L 237.73000000000002 366.39900000000006 C 241.144 363.8070000000001 248.31600000000003 363.50200000000007 251.95000000000002 365.80600000000004 L 304.648 399.093 C 317.471 407.173 336.702 407.059 349.449 398.81600000000003 L 400.159 365.91200000000003 C 403.983 363.444 411.681 363.48300000000006 415.459 365.98800000000006 L 464.974 398.62500000000006 C 477.989 407.24100000000004 497.305 406.73400000000004 509.851 397.4580000000001 L 566.365 355.6890000000001 C 572.342 351.2610000000001 573.594 342.8180000000001 569.186 336.84100000000007 C 564.748 330.835 556.305 329.573 550.328 334 z" stroke-linecap="round" />
</g>
</g>
</g>
</svg>