<?xml version="1.0" encoding="UTF-8" standalone="no" ?>
<!DOCTYPE svg PUBLIC "-//W3C//DTD SVG 1.1//EN" "http://www.w3.org/Graphics/SVG/1.1/DTD/svg11.dtd">
<svg xmlns="http://www.w3.org/2000/svg" xmlns:xlink="http://www.w3.org/1999/xlink" version="1.1" width="1080" height="1080" viewBox="0 0 1080 1080" xml:space="preserve">
<desc>Created with Fabric.js 5.2.4</desc>
<defs>
</defs>
<g transform="matrix(1 0 0 1 540 540)" id="eed053c6-e72f-48a1-bea8-3f051189922d"  >
<rect style="stroke: none; stroke-width: 1; stroke-dasharray: none; stroke-linecap: butt; stroke-dashoffset: 0; stroke-linejoin: miter; stroke-miterlimit: 4; fill: rgb(255,255,255); fill-rule: nonzero; opacity: 1; visibility: hidden;" vector-effect="non-scaling-stroke"  x="-540" y="-540" rx="0" ry="0" width="1080" height="1080" />
</g>
<g transform="matrix(1 0 0 1 540 540)" id="b2e4ab71-bc55-43a3-a2af-e8a43538ecf3"  >
</g>
<g transform="matrix(1 0 0 1 540 540)"  >
<g style="" vector-effect="non-scaling-stroke"   >
		<g transform="matrix(0.13 0 0 -0.13 0 -18.01)"  >
<path style="stroke: none; stroke-width: 1; stroke-dasharray: none; stroke-linecap: butt; stroke-dashoffset: 0; stroke-linejoin: miter; stroke-miterlimit: 4; fill: rgb(255,215,0); fill-rule: nonzero; opacity: 1;" vector-effect="non-scaling-stroke"  transform=" translate(-2561, -2690.51)" d="M 481 3920 L 377 3822 L 459 3723 C 727 3401 890 3026 945 2606 C 960 2489 969 2196 958 2185 C 955 2182 818 2161 654 2140 C 489 2118 349 2099 342 2098 C 332 2096 108 1612 15 1393 L 2 1362 L 63 1385 C 296 1475 708 1596 1000 1660 C 1606 1793 2064 1844 2785 1860 C 3207 1869 3358 1878 3635 1906 C 4018 1945 4446 2015 4770 2091 L 4859 2112 L 4914 2223 C 4965 2328 5024 2472 5091 2653 L 5120 2731 L 5087 2726 C 4996 2711 4836 2690 4815 2690 L 4790 2690 L 4790 2885 L 4790 3080 L 4640 3080 L 4490 3080 L 4488 2863 L 4485 2645 L 4280 2617 L 4075 2590 L 4040 2632 C 3840 2877 3591 3050 3303 3146 C 3102 3214 2988 3226 2394 3246 L 2193 3252 L 2187 3199 C 2183 3169 2180 3101 2180 3048 L 2180 2950 L 2242 2950 C 2318 2950 2834 2929 2837 2926 C 2839 2925 2806 2809 2765 2670 C 2724 2530 2690 2415 2690 2414 C 2690 2408 2587 2394 1985 2315 C 1628 2268 1319 2228 1299 2224 L 1263 2219 L 1257 2417 C 1245 2847 1130 3242 908 3610 C 818 3760 616 4021 592 4019 C 588 4019 538 3975 481 3920 z" stroke-linecap="round" />
</g>
		<g transform="matrix(0.13 0 0 -0.13 -26.26 152)"  >
<path style="stroke: none; stroke-width: 1; stroke-dasharray: none; stroke-linecap: butt; stroke-dashoffset: 0; stroke-linejoin: miter; stroke-miterlimit: 4; fill: rgb(255,215,0); fill-rule: nonzero; opacity: 1;" vector-effect="non-scaling-stroke"  transform=" translate(-2364.06, -1415.41)" d="M 4420 1714 C 4146 1661 3699 1605 3340 1580 C 3255 1574 2998 1565 2770 1560 C 2542 1555 2274 1544 2175 1535 C 1496 1477 854 1346 305 1153 C 233 1128 171 1103 165 1098 C 159 1093 753 1090 1710 1093 C 3130 1096 3274 1098 3370 1114 C 3765 1179 4112 1334 4395 1572 C 4503 1663 4580 1740 4560 1739 C 4552 1739 4489 1727 4420 1714 z" stroke-linecap="round" />
</g>
</g>
</g>
<g transform="matrix(NaN NaN NaN NaN 0 0)"  >
<g style=""   >
</g>
</g>
<g transform="matrix(NaN NaN NaN NaN 0 0)"  >
<g style=""   >
</g>
</g>
</svg>