<?xml version="1.0" encoding="UTF-8" standalone="no" ?>
<!DOCTYPE svg PUBLIC "-//W3C//DTD SVG 1.1//EN" "http://www.w3.org/Graphics/SVG/1.1/DTD/svg11.dtd">
<svg xmlns="http://www.w3.org/2000/svg" xmlns:xlink="http://www.w3.org/1999/xlink" version="1.1" width="1080" height="500" viewBox="0 0 1080 500" xml:space="preserve">
<desc>Created with Fabric.js 5.2.4</desc>
<defs>
</defs>
<g transform="matrix(1 0 0 1 540 250)" id="9950f61c-7c4b-42c0-b8f5-dc25bc28e895"  >
<rect style="stroke: none; stroke-width: 1; stroke-dasharray: none; stroke-linecap: butt; stroke-dashoffset: 0; stroke-linejoin: miter; stroke-miterlimit: 4; fill: rgb(255,255,255); fill-rule: nonzero; opacity: 1; visibility: hidden;" vector-effect="non-scaling-stroke"  x="-540" y="-250" rx="0" ry="0" width="1080" height="500" />
</g>
<g transform="matrix(Infinity NaN NaN Infinity 0 0)" id="13047c0b-11da-4115-8827-524a1cd98732"  >
</g>
<g transform="matrix(1.77 0 0 1.77 540 250)"  >
<g style="" vector-effect="non-scaling-stroke"   >
		<g transform="matrix(0.13 0 0 -0.13 0 -111.59)"  >
<path style="stroke: none; stroke-width: 1; stroke-dasharray: none; stroke-linecap: butt; stroke-dashoffset: 0; stroke-linejoin: miter; stroke-miterlimit: 4; fill: rgb(255,255,255); fill-rule: nonzero; opacity: 1;" vector-effect="non-scaling-stroke"  transform=" translate(-1290, -2017.25)" d="M 952 2142 C 943 2135 940 2102 942 2009 L 945 1885 L 1290 1885 L 1635 1885 L 1638 2009 C 1640 2102 1637 2135 1628 2142 C 1611 2152 969 2152 952 2142 z M 1149 2101 C 1168 2089 1154 2070 1125 2070 C 1102 2070 1101 2067 1098 1993 C 1095 1928 1092 1915 1078 1912 C 1062 1909 1060 1918 1060 1989 C 1060 2068 1059 2070 1036 2070 C 1009 2070 995 2084 1005 2100 C 1013 2112 1130 2113 1149 2101 z M 1258 2098 C 1271 2081 1330 1939 1330 1923 C 1330 1900 1300 1909 1288 1935 C 1279 1955 1270 1960 1238 1960 C 1206 1960 1198 1956 1190 1935 C 1185 1921 1174 1910 1165 1910 C 1140 1910 1142 1916 1210 2088 C 1220 2112 1242 2117 1258 2098 z M 1399 2091 C 1409 2081 1420 2066 1423 2059 C 1427 2048 1432 2049 1445 2065 C 1454 2076 1465 2091 1469 2099 C 1474 2107 1485 2110 1495 2106 C 1510 2100 1511 2097 1498 2077 C 1453 2008 1453 2014 1488 1965 C 1526 1912 1526 1910 1501 1910 C 1490 1910 1472 1924 1460 1940 C 1448 1957 1435 1970 1430 1970 C 1425 1970 1414 1957 1405 1940 C 1396 1922 1382 1910 1370 1910 C 1343 1910 1345 1923 1380 1971 L 1409 2012 L 1380 2055 C 1353 2094 1351 2110 1372 2110 C 1376 2110 1388 2102 1399 2091 z M 1578 2006 C 1580 1917 1579 1909 1563 1912 C 1548 1915 1545 1928 1542 1999 C 1539 2091 1543 2114 1563 2108 C 1571 2105 1576 2073 1578 2006 z" stroke-linecap="round" />
</g>
		<g transform="matrix(0.13 0 0 -0.13 -6.68 -111.8)"  >
<path style="stroke: none; stroke-width: 1; stroke-dasharray: none; stroke-linecap: butt; stroke-dashoffset: 0; stroke-linejoin: miter; stroke-miterlimit: 4; fill: rgb(255,255,255); fill-rule: nonzero; opacity: 1;" vector-effect="non-scaling-stroke"  transform=" translate(-1239.89, -2018.88)" d="M 1227 2036 C 1215 2005 1219 1990 1240 1990 C 1263 1990 1266 2008 1247 2034 C 1234 2052 1233 2052 1227 2036 z" stroke-linecap="round" />
</g>
		<g transform="matrix(0.13 0 0 -0.13 0.13 -3.93)"  >
<path style="stroke: none; stroke-width: 1; stroke-dasharray: none; stroke-linecap: butt; stroke-dashoffset: 0; stroke-linejoin: miter; stroke-miterlimit: 4; fill: rgb(255,255,255); fill-rule: nonzero; opacity: 1;" vector-effect="non-scaling-stroke"  transform=" translate(-1290.97, -1209.84)" d="M 875 1770 C 815 1766 749 1762 729 1761 L 693 1760 L 650 1598 C 602 1412 563 1272 555 1260 C 552 1255 524 1244 492 1235 C 399 1208 402 1217 436 1020 C 453 929 516 720 528 720 C 532 720 558 727 585 735 C 655 757 803 765 880 751 C 916 745 999 719 1065 694 C 1255 621 1332 623 1542 705 C 1604 730 1681 755 1713 761 C 1791 777 1903 766 1984 736 C 2062 707 2053 699 2098 840 C 2128 935 2153 1050 2165 1146 C 2173 1207 2169 1211 2073 1239 L 2001 1260 L 1987 1313 C 1978 1341 1949 1450 1921 1554 C 1893 1658 1867 1747 1863 1751 C 1839 1775 1162 1788 875 1770 z M 1569 1675 C 1675 1672 1770 1665 1780 1660 C 1791 1654 1804 1624 1815 1578 C 1825 1538 1846 1460 1861 1406 C 1877 1351 1888 1305 1886 1302 C 1883 1300 1844 1310 1798 1323 C 1637 1372 1482 1410 1386 1424 C 1302 1437 1278 1437 1194 1424 C 1092 1409 878 1357 748 1316 C 695 1300 670 1295 670 1303 C 670 1310 684 1367 701 1430 C 718 1493 739 1571 747 1602 C 761 1654 765 1660 794 1665 C 835 1673 1260 1688 1325 1684 C 1353 1682 1462 1678 1569 1675 z" stroke-linecap="round" />
</g>
		<g transform="matrix(0.13 0 0 -0.13 0 86.82)"  >
<path style="stroke: none; stroke-width: 1; stroke-dasharray: none; stroke-linecap: butt; stroke-dashoffset: 0; stroke-linejoin: miter; stroke-miterlimit: 4; fill: rgb(255,255,255); fill-rule: nonzero; opacity: 1;" vector-effect="non-scaling-stroke"  transform=" translate(-1290, -529.19)" d="M 1730 633 C 1716 630 1640 603 1560 573 C 1433 524 1404 517 1325 513 C 1228 508 1222 509 1015 586 C 921 621 908 623 795 624 C 664 625 596 609 455 547 C 398 522 371 516 310 516 C 269 515 223 519 208 523 C 184 529 180 527 180 510 C 180 477 207 433 232 426 C 245 423 280 420 310 420 C 362 420 390 428 584 500 C 730 553 876 545 1058 472 C 1168 429 1182 426 1285 423 C 1392 419 1398 420 1510 460 C 1738 541 1780 552 1844 546 C 1876 543 1942 526 1989 509 C 2036 492 2104 470 2140 459 C 2205 441 2345 434 2366 448 C 2382 458 2400 496 2400 518 C 2400 536 2394 537 2313 533 C 2217 527 2211 528 2037 590 C 1919 631 1799 648 1730 633 z" stroke-linecap="round" />
</g>
		<g transform="matrix(0.13 0 0 -0.13 0 114.73)"  >
<path style="stroke: none; stroke-width: 1; stroke-dasharray: none; stroke-linecap: butt; stroke-dashoffset: 0; stroke-linejoin: miter; stroke-miterlimit: 4; fill: rgb(255,255,255); fill-rule: nonzero; opacity: 1;" vector-effect="non-scaling-stroke"  transform=" translate(-1290, -319.86)" d="M 1690 412 C 1654 402 1585 377 1535 358 C 1345 283 1272 282 1080 354 C 852 440 718 440 489 354 C 362 307 293 297 212 315 C 184 321 180 319 180 301 C 180 269 201 231 224 223 C 267 209 384 218 445 240 C 690 330 667 324 790 324 C 895 324 912 321 990 291 C 1166 224 1187 218 1256 213 C 1356 205 1444 223 1594 283 C 1720 333 1729 335 1820 334 C 1909 334 1923 330 2040 286 C 2147 245 2178 237 2257 233 C 2345 228 2349 228 2374 253 C 2391 270 2400 290 2400 310 C 2400 338 2398 340 2373 333 C 2313 316 2188 326 2115 354 C 1918 430 1808 445 1690 412 z" stroke-linecap="round" />
</g>
</g>
</g>
</svg>